Description says it all!
Resolution for those who are blind: 1280x720 progressive
Pls Comment and seed after download!


General
Format                           : MPEG-4
Format profile                   : Base Media / Version 2
Codec ID                         : mp42
File size                        : 83.8 MiB
Duration                         : 5mn 33s
Overall bit rate                 : 2 107 Kbps
Encoded date                     : UTC 2010-02-20 20:46:02
Tagged date                      : UTC 2010-02-20 20:46:02
gsst                             : 0
gstd                             : 334111
gssd                             : B4A7DA345HH

Video
ID                               : 2
Format                           : AVC
Format/Info                      : Advanced Video Codec
Format profile                   : High@L3.1
Format settings, CABAC           : Yes
Format settings, ReFrames        : 3 frames
Codec ID                         : avc1
Codec ID/Info                    : Advanced Video Coding
Duration                         : 5mn 33s
Bit rate mode                    : Variable
Bit rate                         : 1 977 Kbps
Maximum bit rate                 : 4 740 Kbps
Width                            : 1 280 pixels
Height                           : 720 pixels
Display aspect ratio             : 16:9
Frame rate mode                  : Constant
Frame rate                       : 25.000 fps
Resolution                       : 8 bits
Colorimetry                      : 4:2:0
Scan type                        : Progressive
Bits/(Pixel*Frame)               : 0.086
Stream size                      : 78.6 MiB (94%)
Encoded date                     : UTC 2010-02-20 20:46:02
Tagged date                      : UTC 2010-02-20 20:46:06

Audio
ID                               : 1
Format                           : AAC
Format/Info                      : Advanced Audio Codec
Format version                   : Version 4
Format profile                   : LC
Format settings, SBR             : No
Codec ID                         : 40
Duration                         : 5mn 33s
Bit rate mode                    : Variable
Bit rate                         : 127 Kbps
Maximum bit rate                 : 162 Kbps
Channel(s)                       : 2 channels
Channel positions                : L R
Sampling rate                    : 44.1 KHz
Stream size                      : 5.05 MiB (6%)
Encoded date                     : UTC 2010-02-20 20:46:02
Tagged date                      : UTC 2010-02-20 20:46:06